<?xml version="1.0" encoding="iso-8859-1"?>
<!-- Generator: Adobe Illustrator 19.0.0, SVG Export Plug-In . SVG Version: 6.00 Build 0)  -->
<svg version="1.1" id="Capa_1" xmlns="http://www.w3.org/2000/svg" xmlns:xlink="http://www.w3.org/1999/xlink" x="0px" y="0px"
	 viewBox="0 0 512 512" style="enable-background:new 0 0 512 512;" xml:space="preserve">
<g>
	<g>
		<path d="M345.002,125.663c-1.765-5.43-6.459-9.388-12.109-10.209l-43.837-6.37l-19.604-39.723C266.924,64.242,261.709,61,256,61
			c-5.709,0-10.924,3.242-13.451,8.361l-19.604,39.723l-43.836,6.37c-5.65,0.821-10.345,4.779-12.109,10.209
			c-1.765,5.43-0.293,11.391,3.795,15.376l31.721,30.92l-7.488,43.66c-0.965,5.627,1.348,11.315,5.967,14.671
			c4.62,3.356,10.744,3.798,15.797,1.142L256,210.819l39.209,20.613c5.058,2.658,11.18,2.214,15.797-1.142
			c4.619-3.356,6.933-9.043,5.968-14.671l-7.488-43.66l31.721-30.92C345.295,137.054,346.767,131.093,345.002,125.663z
			 M282.897,155.982c-3.535,3.446-5.148,8.411-4.313,13.277l3.684,21.477l-19.288-10.14c-4.369-2.297-9.59-2.298-13.96,0
			l-19.287,10.14l3.684-21.477c0.834-4.866-0.779-9.831-4.314-13.277l-15.604-15.21l21.563-3.133
			c4.885-0.71,9.109-3.779,11.294-8.206l9.644-19.54l9.644,19.54c2.185,4.427,6.409,7.496,11.294,8.206l21.563,3.133
			L282.897,155.982z"/>
	</g>
</g>
<g>
	<g>
		<path d="M452,31c-10.925,0-21.167,2.949-30,8.072V15c0-8.284-6.716-15-15-15H105c-8.284,0-15,6.716-15,15v24.072
			C81.167,33.949,70.925,31,60,31C26.916,31,0,57.916,0,91v50.917c0,20.107,9.988,38.77,26.718,49.923l69.961,46.641
			c0.347,0.231,0.701,0.443,1.059,0.642c11.496,30.345,35.45,55.252,69.48,71.15c22.336,10.436,37.663,29.167,42.3,50.727H196
			c-24.813,0-45,20.187-45,45v17.57c-17.461,6.191-30,22.874-30,42.43v31c0,8.284,6.716,15,15,15h240c8.284,0,15-6.716,15-15v-31
			c0-19.556-12.539-36.239-30-42.43V406c0-24.813-20.187-45-45-45h-14.228c3.117-20.854,15.589-39.39,34.108-49.867
			c36.164-20.458,63.858-41.676,77.245-71.446c1.708-0.767-3.47,2.57,72.156-47.848C502.012,180.687,512,162.024,512,141.917V91
			C512,57.916,485.084,31,452,31z M43.359,166.878C34.994,161.302,30,151.97,30,141.917V91c0-16.542,13.458-30,30-30
			s30,13.458,30,30v105c0,0.668,0.025,1.33,0.035,1.996L43.359,166.878z M316,391c8.271,0,15,6.729,15,15v15h-45
			c-8.284,0-15,6.716-15,15s6.716,15,15,15h60c8.271,0,15,6.729,15,15v16H151v-16c0-8.271,6.729-15,15-15h60c8.284,0,15-6.716,15-15
			s-6.716-15-15-15h-45v-15c0-8.271,6.729-15,15-15H316z M392,196c0,36.118-18.551,59.414-70.891,89.022
			c-27.919,15.794-46.281,44.29-49.573,75.978h-31.54c-4.826-33.329-26.922-62.416-60.08-77.907
			C141.279,265.042,120,234.112,120,196V30h272V196z M482,141.917c0,10.053-4.994,19.385-13.358,24.961l-46.681,31.121
			c0.01-0.668,0.039-1.323,0.039-1.999V91c0-16.542,13.458-30,30-30s30,13.458,30,30V141.917z"/>
	</g>
</g>
<g>
</g>
<g>
</g>
<g>
</g>
<g>
</g>
<g>
</g>
<g>
</g>
<g>
</g>
<g>
</g>
<g>
</g>
<g>
</g>
<g>
</g>
<g>
</g>
<g>
</g>
<g>
</g>
<g>
</g>
</svg>
