<svg xmlns="http://www.w3.org/2000/svg" xmlns:xlink="http://www.w3.org/1999/xlink" version="1.1" width="256" height="256" viewBox="0 0 256 256" xml:space="preserve">
<desc>Created with Fabric.js 1.7.22</desc>
<defs>
</defs>
<g transform="translate(128 128) scale(0.72 0.72)" style="">
	<g style="stroke: none; stroke-width: 0; stroke-dasharray: none; stroke-linecap: butt; stroke-linejoin: miter; stroke-miterlimit: 10; fill: none; fill-rule: nonzero; opacity: 1;" transform="translate(-175.05 -175.05000000000004) scale(3.89 3.89)" >
	<path d="M 53.927 78.281 h 31.5 c 1.973 0 3.573 -1.6 3.573 -3.573 V 15.292 c 0 -1.973 -1.6 -3.573 -3.573 -3.573 H 4.573 C 2.6 11.719 1 13.319 1 15.292 v 59.415 c 0 1.973 1.6 3.573 3.573 3.573 h 31.5" style="stroke: none; stroke-width: 1; stroke-dasharray: none; stroke-linecap: butt; stroke-linejoin: miter; stroke-miterlimit: 10; fill: rgb(230,230,230); fill-rule: nonzero; opacity: 1;" transform=" matrix(1 0 0 1 0 0) " stroke-linecap="round" />
	<path d="M 84.436 11.719 H 5.564 C 3.044 11.719 1 13.763 1 16.284 v 8.732 h 88 v -8.732 C 89 13.763 86.956 11.719 84.436 11.719 z" style="stroke: none; stroke-width: 1; stroke-dasharray: none; stroke-linecap: butt; stroke-linejoin: miter; stroke-miterlimit: 10; fill: rgb(59,154,216); fill-rule: nonzero; opacity: 1;" transform=" matrix(1 0 0 1 0 0) " stroke-linecap="round" />
	<path d="M 49.501 20 H 7.378 c -0.552 0 -1 -0.448 -1 -1 s 0.448 -1 1 -1 h 42.123 c 0.553 0 1 0.448 1 1 S 50.054 20 49.501 20 z" style="stroke: none; stroke-width: 1; stroke-dasharray: none; stroke-linecap: butt; stroke-linejoin: miter; stroke-miterlimit: 10; fill: rgb(0,47,78); fill-rule: nonzero; opacity: 1;" transform=" matrix(1 0 0 1 0 0) " stroke-linecap="round" />
	<path d="M 82.622 20 h -3.814 c -0.553 0 -1 -0.448 -1 -1 s 0.447 -1 1 -1 h 3.814 c 0.553 0 1 0.448 1 1 S 83.175 20 82.622 20 z" style="stroke: none; stroke-width: 1; stroke-dasharray: none; stroke-linecap: butt; stroke-linejoin: miter; stroke-miterlimit: 10; fill: rgb(0,47,78); fill-rule: nonzero; opacity: 1;" transform=" matrix(1 0 0 1 0 0) " stroke-linecap="round" />
	<path d="M 73.622 20 h -3.814 c -0.553 0 -1 -0.448 -1 -1 s 0.447 -1 1 -1 h 3.814 c 0.553 0 1 0.448 1 1 S 74.175 20 73.622 20 z" style="stroke: none; stroke-width: 1; stroke-dasharray: none; stroke-linecap: butt; stroke-linejoin: miter; stroke-miterlimit: 10; fill: rgb(0,47,78); fill-rule: nonzero; opacity: 1;" transform=" matrix(1 0 0 1 0 0) " stroke-linecap="round" />
	<path d="M 46.907 79.28 h -3.814 c -0.552 0 -1 -0.447 -1 -1 s 0.448 -1 1 -1 h 3.814 c 0.553 0 1 0.447 1 1 S 47.46 79.28 46.907 79.28 z" style="stroke: none; stroke-width: 1; stroke-dasharray: none; stroke-linecap: butt; stroke-linejoin: miter; stroke-miterlimit: 10; fill: rgb(0,47,78); fill-rule: nonzero; opacity: 1;" transform=" matrix(1 0 0 1 0 0) " stroke-linecap="round" />
	<path d="M 85.427 10.719 H 4.573 C 2.052 10.719 0 12.771 0 15.292 v 59.416 c 0 2.521 2.052 4.572 4.573 4.572 h 31.5 c 0.552 0 1 -0.447 1 -1 s -0.448 -1 -1 -1 h -31.5 C 3.154 77.28 2 76.126 2 74.708 V 26.016 h 86 v 48.692 c 0 1.418 -1.154 2.572 -2.573 2.572 h -31.5 c -0.553 0 -1 0.447 -1 1 s 0.447 1 1 1 h 31.5 c 2.521 0 4.573 -2.051 4.573 -4.572 V 15.292 C 90 12.771 87.948 10.719 85.427 10.719 z M 2 24.016 v -8.723 c 0 -1.419 1.154 -2.573 2.573 -2.573 h 80.854 c 1.419 0 2.573 1.154 2.573 2.573 v 8.723 H 2 z" style="stroke: none; stroke-width: 1; stroke-dasharray: none; stroke-linecap: butt; stroke-linejoin: miter; stroke-miterlimit: 10; fill: rgb(0,47,78); fill-rule: nonzero; opacity: 1;" transform=" matrix(1 0 0 1 0 0) " stroke-linecap="round" />
	<path d="M 21.512 70.875 h -6.483 c -0.912 0 -1.651 -0.739 -1.651 -1.651 v -5.483 c 0 -0.912 0.739 -1.651 1.651 -1.651 h 6.483 c 0.912 0 1.651 0.739 1.651 1.651 v 5.483 C 23.163 70.136 22.424 70.875 21.512 70.875 z" style="stroke: none; stroke-width: 1; stroke-dasharray: none; stroke-linecap: butt; stroke-linejoin: miter; stroke-miterlimit: 10; fill: rgb(216,10,0); fill-rule: nonzero; opacity: 1;" transform=" matrix(1 0 0 1 0 0) " stroke-linecap="round" />
	<path d="M 39.332 70.875 h -6.483 c -0.912 0 -1.651 -0.739 -1.651 -1.651 V 58.741 c 0 -0.912 0.739 -1.651 1.651 -1.651 h 6.483 c 0.912 0 1.651 0.739 1.651 1.651 v 10.483 C 40.983 70.136 40.244 70.875 39.332 70.875 z" style="stroke: none; stroke-width: 1; stroke-dasharray: none; stroke-linecap: butt; stroke-linejoin: miter; stroke-miterlimit: 10; fill: rgb(216,92,0); fill-rule: nonzero; opacity: 1;" transform=" matrix(1 0 0 1 0 0) " stroke-linecap="round" />
	<path d="M 57.151 70.875 h -6.483 c -0.912 0 -1.651 -0.739 -1.651 -1.651 V 46.741 c 0 -0.912 0.739 -1.651 1.651 -1.651 h 6.483 c 0.912 0 1.651 0.739 1.651 1.651 v 22.483 C 58.803 70.136 58.063 70.875 57.151 70.875 z" style="stroke: none; stroke-width: 1; stroke-dasharray: none; stroke-linecap: butt; stroke-linejoin: miter; stroke-miterlimit: 10; fill: rgb(209,184,0); fill-rule: nonzero; opacity: 1;" transform=" matrix(1 0 0 1 0 0) " stroke-linecap="round" />
	<path d="M 74.971 70.875 h -6.483 c -0.912 0 -1.651 -0.739 -1.651 -1.651 V 34.741 c 0 -0.912 0.739 -1.651 1.651 -1.651 h 6.483 c 0.912 0 1.651 0.739 1.651 1.651 v 34.483 C 76.622 70.136 75.883 70.875 74.971 70.875 z" style="stroke: none; stroke-width: 1; stroke-dasharray: none; stroke-linecap: butt; stroke-linejoin: miter; stroke-miterlimit: 10; fill: rgb(100,204,0); fill-rule: nonzero; opacity: 1;" transform=" matrix(1 0 0 1 0 0) " stroke-linecap="round" />
	<path d="M 21.512 71.875 h -6.483 c -1.462 0 -2.651 -1.189 -2.651 -2.651 v -5.482 c 0 -1.462 1.189 -2.651 2.651 -2.651 h 6.483 c 1.462 0 2.651 1.189 2.651 2.651 v 5.482 C 24.163 70.686 22.974 71.875 21.512 71.875 z M 15.029 63.09 c -0.359 0 -0.651 0.292 -0.651 0.651 v 5.482 c 0 0.359 0.292 0.651 0.651 0.651 h 6.483 c 0.359 0 0.651 -0.292 0.651 -0.651 v -5.482 c 0 -0.359 -0.292 -0.651 -0.651 -0.651 H 15.029 z" style="stroke: none; stroke-width: 1; stroke-dasharray: none; stroke-linecap: butt; stroke-linejoin: miter; stroke-miterlimit: 10; fill: rgb(0,47,78); fill-rule: nonzero; opacity: 1;" transform=" matrix(1 0 0 1 0 0) " stroke-linecap="round" />
	<path d="M 39.332 71.875 h -6.483 c -1.462 0 -2.651 -1.189 -2.651 -2.651 V 58.741 c 0 -1.462 1.189 -2.651 2.651 -2.651 h 6.483 c 1.462 0 2.651 1.189 2.651 2.651 v 10.482 C 41.983 70.686 40.793 71.875 39.332 71.875 z M 32.849 58.09 c -0.359 0 -0.651 0.292 -0.651 0.651 v 10.482 c 0 0.359 0.292 0.651 0.651 0.651 h 6.483 c 0.359 0 0.651 -0.292 0.651 -0.651 V 58.741 c 0 -0.359 -0.292 -0.651 -0.651 -0.651 H 32.849 z" style="stroke: none; stroke-width: 1; stroke-dasharray: none; stroke-linecap: butt; stroke-linejoin: miter; stroke-miterlimit: 10; fill: rgb(0,47,78); fill-rule: nonzero; opacity: 1;" transform=" matrix(1 0 0 1 0 0) " stroke-linecap="round" />
	<path d="M 57.151 71.875 h -6.483 c -1.462 0 -2.651 -1.189 -2.651 -2.651 V 46.741 c 0 -1.462 1.189 -2.651 2.651 -2.651 h 6.483 c 1.462 0 2.651 1.189 2.651 2.651 v 22.482 C 59.803 70.686 58.613 71.875 57.151 71.875 z M 50.668 46.09 c -0.359 0 -0.651 0.292 -0.651 0.651 v 22.482 c 0 0.359 0.292 0.651 0.651 0.651 h 6.483 c 0.359 0 0.651 -0.292 0.651 -0.651 V 46.741 c 0 -0.359 -0.292 -0.651 -0.651 -0.651 H 50.668 z" style="stroke: none; stroke-width: 1; stroke-dasharray: none; stroke-linecap: butt; stroke-linejoin: miter; stroke-miterlimit: 10; fill: rgb(0,47,78); fill-rule: nonzero; opacity: 1;" transform=" matrix(1 0 0 1 0 0) " stroke-linecap="round" />
	<path d="M 74.971 71.875 h -6.482 c -1.462 0 -2.651 -1.189 -2.651 -2.651 V 34.741 c 0 -1.462 1.189 -2.651 2.651 -2.651 h 6.482 c 1.462 0 2.651 1.189 2.651 2.651 v 34.482 C 77.622 70.686 76.433 71.875 74.971 71.875 z M 68.488 34.09 c -0.359 0 -0.651 0.292 -0.651 0.651 v 34.482 c 0 0.359 0.292 0.651 0.651 0.651 h 6.482 c 0.359 0 0.651 -0.292 0.651 -0.651 V 34.741 c 0 -0.359 -0.292 -0.651 -0.651 -0.651 H 68.488 z" style="stroke: none; stroke-width: 1; stroke-dasharray: none; stroke-linecap: butt; stroke-linejoin: miter; stroke-miterlimit: 10; fill: rgb(0,47,78); fill-rule: nonzero; opacity: 1;" transform=" matrix(1 0 0 1 0 0) " stroke-linecap="round" />
</g>
</g>
</svg>