<?xml version="1.0" encoding="iso-8859-1"?>
<!-- Generator: Adobe Illustrator 19.0.0, SVG Export Plug-In . SVG Version: 6.00 Build 0)  -->
<svg version="1.1" id="Layer_1" xmlns="http://www.w3.org/2000/svg" xmlns:xlink="http://www.w3.org/1999/xlink" x="0px" y="0px"
	 viewBox="0 0 453.107 453.107" style="enable-background:new 0 0 453.107 453.107;" xml:space="preserve">
<g>
	<g>
		<g>
			<g id="XMLID_27_">
				<g>
					<path style="fill:#1EA6C6;" d="M318.177,223.759v182.3c-22.57,7.51-46.71,11.58-71.8,11.58c-58.79,0-112.38-22.3-152.75-58.91
						v-0.13c0-60.89,35.63-113.45,87.17-137.98c19.37,19.32,42.05,29.73,65.58,29.73c23.54,0,46.21-10.41,65.59-29.73
						C314.067,221.618,316.137,222.659,318.177,223.759z"/>
					<path style="fill:#FCD09F;" d="M330.867,112.779c0,4.52-0.35,9.2-1.04,13.97c-1.79,12.49-5.83,25.57-11.65,37.93
						c-14.91,31.66-41.49,58.59-71.8,58.59c-46.66,0-84.49-63.82-84.49-110.49c0-46.66,37.83-84.48,84.49-84.48
						C293.037,28.299,330.867,66.119,330.867,112.779z"/>
				</g>
			</g>
		</g>
		<g>
			<g id="XMLID_22_">
				<g>
					<path style="fill:#EF806F;" d="M175.17,193.57c2.59,3.69,5.27,7.15,8.04,10.4l-8.43,4.01c-28.06,13.35-51.8,34.24-68.67,60.41
						c-13.72,21.29-22.32,45.29-25.31,70.31c-30.49-8.31-58.05-23.72-80.8-44.35v-0.11c0-53.06,31.05-98.86,75.96-120.24
						c16.88,16.84,36.64,25.91,57.14,25.91c13.43,0,26.55-3.89,38.74-11.31C172.91,190.281,174.03,191.94,175.17,193.57z"/>
					<path style="fill:#EFC59C;" d="M147.89,112.781c0,17.54,4.56,36.84,12.68,54.98c-8.49,5.38-17.76,8.55-27.47,8.55
						c-40.66,0-73.62-55.61-73.62-96.28c0-40.66,32.96-73.61,73.62-73.61c22.55,0,42.74,10.14,56.24,26.11
						C164.27,50.41,147.89,79.721,147.89,112.781z"/>
				</g>
			</g>
		</g>
	</g>
	<path style="fill:#EF806F;" d="M453.107,255.357v130.32h-15v-130.32c0-25.07-20.4-45.47-45.47-45.47s-45.46,20.4-45.46,45.47
		v142.28c0,18.77,15.27,34.05,34.04,34.05c18.77,0,34.04-15.28,34.04-34.05v-114.69c0-11.9-9.68-21.58-21.58-21.58
		s-21.58,9.68-21.58,21.58v102.73h-15v-102.73c0-20.17,16.41-36.58,36.58-36.58s36.58,16.41,36.58,36.58v114.69
		c0,27.04-22,49.05-49.04,49.05s-49.04-22.01-49.04-49.05v-142.28c0-33.34,27.12-60.47,60.46-60.47c25.04,0,46.58,15.31,55.75,37.05
		C451.427,239.146,453.107,247.057,453.107,255.357z"/>
</g>
<g>
</g>
<g>
</g>
<g>
</g>
<g>
</g>
<g>
</g>
<g>
</g>
<g>
</g>
<g>
</g>
<g>
</g>
<g>
</g>
<g>
</g>
<g>
</g>
<g>
</g>
<g>
</g>
<g>
</g>
</svg>
